<svg xmlns="http://www.w3.org/2000/svg" width="389" height="103" viewBox="0 0 389 103">
    <defs>
        <filter id="a" width="101.8%" height="107%" x="-.9%" y="-2.5%" filterUnits="objectBoundingBox">
            <feOffset dy="1" in="SourceAlpha" result="shadowOffsetOuter1"/>
            <feGaussianBlur in="shadowOffsetOuter1" result="shadowBlurOuter1" stdDeviation="1"/>
            <feColorMatrix in="shadowBlurOuter1" result="shadowMatrixOuter1" values="0 0 0 0 0.0929477849 0 0 0 0 0.258347524 0 0 0 0 0.391209609 0 0 0 1 0"/>
            <feMerge>
                <feMergeNode in="shadowMatrixOuter1"/>
                <feMergeNode in="SourceGraphic"/>
            </feMerge>
        </filter>
    </defs>
    <g fill="#FFF" fill-rule="evenodd" filter="url(#a)" transform="translate(2 1)">
        <path fill="#0066a6" d="M4.893 42.467L62.21 92.621h57.434l-9.557-86.016L4.893 42.467zM2.07 40.82L110.747 3.771a1.235 1.235 0 0 1 1.626 1.032l9.88 88.917a1.235 1.235 0 0 1-1.228 1.371H61.747c-.299 0-.588-.108-.813-.305L1.657 42.918a1.235 1.235 0 0 1 .414-2.099z"/>
        <path fill="#0066a6" d="M6.914 44.171l.991-2.262 2.263.992-.992 2.262-2.262-.992zm4.524 1.983l.992-2.262 2.262.992-.992 2.262-2.262-.992zm4.524 1.983l.992-2.262 2.262.992-.991 2.262-2.263-.992zm4.525 1.983l.991-2.262 2.262.992-.991 2.262-2.262-.992zm4.524 1.983l.992-2.262 2.262.992-.992 2.262-2.262-.992zm4.524 1.983l.992-2.262 2.262.992-.992 2.262-2.262-.992zm4.525 1.984l.991-2.263 2.262.992-.991 2.262-2.262-.991zm4.524 1.983l.991-2.263 2.263.992-.992 2.262-2.262-.991zm4.524 1.983l.992-2.263 2.262.992-.992 2.262-2.262-.991zm4.524 1.983l.992-2.263 2.262.992-.991 2.262-2.263-.991zm4.525 1.983l.991-2.262 2.262.991-.991 2.262-2.262-.991zm4.524 1.983l.992-2.262 2.262.991-.992 2.262-2.262-.991zm4.524 1.983l.992-2.262 2.262.991-.992 2.262-2.262-.991zm4.525 1.983l.991-2.262 2.262.991-.991 2.262-2.262-.991zm4.524 1.983l.991-2.262 2.263.991-.992 2.262-2.262-.991zm4.524 1.983l.992-2.262 2.262.991-.992 2.262-2.262-.991zm4.524 1.983l.992-2.262 2.262.991-.991 2.262-2.263-.991zm4.525 1.983l.991-2.262 2.262.991-.991 2.262-2.262-.991zm4.524 1.983l.992-2.262 2.262.991-.992 2.263-2.262-.992zm4.524 1.983l.992-2.262 2.262.991-.992 2.263-2.262-.992zm4.525 1.983l.991-2.262 2.262.991-.991 2.263-2.262-.992zm4.524 1.983l.991-2.262 2.263.992-.992 2.262-2.262-.992zm4.524 1.983l.992-2.262 2.262.992-.992 2.262-2.262-.992zm4.524 1.983l.992-2.262 2.262.992-.991 2.262-2.263-.992zm4.525 1.983l.991-2.262 2.262.992-.991 2.262-2.262-.992zm4.524 1.983l.992-2.262.1.044-.991 2.263-.101-.045z"/>
        <path fill="#0066a6" d="M62.829 95.189l-2.163-1.193 47.495-86.13 2.163 1.192z"/>
        <path fill="#0066a6" d="M168.754 21.93c1.228-2.258 2.914-4.014 5.055-5.268 2.142-1.254 4.532-1.881 7.169-1.881 1.338 0 2.63.106 3.878.318 1.248.212 2.522.473 3.821.782l.637.154-.328 6.445h-2.046l-.849-4.573c-.386-.348-1.093-.637-2.122-.869-1.03-.231-2.29-.347-3.782-.347-1.814 0-3.445.492-4.892 1.476-1.447.984-2.585 2.425-3.415 4.323-.83 1.897-1.245 4.164-1.245 6.801 0 2.47.36 4.747 1.08 6.831.721 2.084 1.818 3.753 3.29 5.008 1.474 1.254 3.29 1.881 5.452 1.881 1.505 0 2.672-.125 3.502-.376.83-.251 1.547-.615 2.152-1.09l1.582-3.725 1.93.29-.965 5.268a4.63 4.63 0 0 0-1.042.154c-.335.09-.766.219-1.293.386-.926.309-1.824.55-2.692.723-.868.174-1.952.261-3.251.261-2.83 0-5.255-.63-7.275-1.891-2.02-1.26-3.557-3.04-4.612-5.335-1.054-2.297-1.582-4.976-1.582-8.037 0-2.882.614-5.451 1.843-7.709zm43.856 1.534c1.46 1.03 2.525 2.409 3.193 4.139.67 1.73 1.004 3.689 1.004 5.876 0 2.302-.483 4.319-1.447 6.049-.965 1.73-2.229 3.058-3.792 3.985-1.563.926-3.2 1.389-4.91 1.389-2.265 0-4.127-.515-5.587-1.544s-2.521-2.408-3.184-4.139c-.662-1.73-.994-3.688-.994-5.875 0-2.29.483-4.303 1.448-6.04.964-1.737 2.225-3.068 3.782-3.994 1.556-.927 3.19-1.39 4.9-1.39 2.265 0 4.127.515 5.587 1.544zm-.946 3.232c-1.022-1.807-2.62-2.711-4.795-2.711-2.032 0-3.605.775-4.717 2.325-1.113 1.55-1.67 3.824-1.67 6.821 0 1.84.22 3.49.656 4.95.438 1.46 1.13 2.618 2.075 3.473.945.856 2.151 1.283 3.618 1.283 2.032 0 3.602-.778 4.708-2.335 1.106-1.556 1.66-3.827 1.66-6.811 0-2.856-.512-5.187-1.535-6.995zm28.777 14.906c-.94.875-2.068 1.644-3.387 2.306-1.318.663-2.647.994-3.984.994-1.621 0-2.914-.3-3.879-.897-.965-.598-1.666-1.521-2.103-2.77-.438-1.247-.656-2.887-.656-4.92V24.7l-2.335-.675v-1.467l4.785-.502h.02l.714.464v13.333c0 1.66.119 2.956.357 3.888.238.933.675 1.621 1.312 2.065.637.444 1.56.666 2.769.666 1.157 0 2.257-.251 3.3-.753a13.136 13.136 0 0 0 2.759-1.756V24.718l-3.03-.694v-1.467l5.287-.502h.039l.888.464v20.203h2.45l-.02 1.505c-.102.025-.356.1-.761.222-.406.122-.82.215-1.245.28a8.49 8.49 0 0 1-1.273.096c-.682 0-1.187-.12-1.515-.357-.328-.238-.492-.679-.492-1.322v-1.544zm15.992.946V25.143l-3.048-.695v-1.775l4.997-.618h.097l.752.618v1.39l-.02 2.238h.02c.039-.052.38-.45 1.023-1.197.643-.746 1.605-1.463 2.885-2.151 1.28-.689 2.576-1.033 3.888-1.033.437 0 .83.058 1.177.174v3.473c-.103-.077-.335-.154-.695-.231a5.327 5.327 0 0 0-1.119-.116c-1.505 0-2.798.228-3.878.685a12.967 12.967 0 0 0-2.876 1.65v14.974l5.249.308v1.621h-11.616v-1.64l3.164-.27zm21.048-4.284l.599 3.068c.18.283.514.557 1.003.82.489.264 1.068.48 1.737.647.669.167 1.344.25 2.026.25 3.229 0 4.843-1.196 4.843-3.589 0-.746-.215-1.389-.646-1.93-.431-.54-1.065-1.028-1.901-1.466-.836-.437-1.968-.913-3.396-1.428-1.415-.514-2.566-1.08-3.454-1.698-.888-.617-1.55-1.354-1.988-2.209-.437-.855-.656-1.875-.656-3.058 0-1.132.344-2.123 1.033-2.972.688-.85 1.617-1.502 2.788-1.959 1.17-.456 2.444-.685 3.82-.685.953 0 1.83.071 2.635.213.804.141 1.421.283 1.852.424.43.142.968.335 1.611.58v4.688h-1.949l-.694-2.856c-.18-.36-.64-.656-1.38-.887-.74-.232-1.566-.348-2.48-.348-.836 0-1.579.129-2.228.386-.65.257-1.155.624-1.515 1.1a2.645 2.645 0 0 0-.54 1.64c0 .85.196 1.55.588 2.103.393.554.885.994 1.476 1.322.592.328 1.396.698 2.412 1.11.335.128.586.231.753.309 1.505.604 2.714 1.16 3.628 1.669a6.977 6.977 0 0 1 2.276 2.006c.605.83.907 1.862.907 3.097 0 1.3-.34 2.422-1.022 3.368-.682.945-1.64 1.669-2.875 2.17-1.235.502-2.663.753-4.284.753-1.132 0-2.422-.183-3.869-.55-1.447-.367-2.525-.743-3.232-1.129v-4.959h2.122zm22.303-10.825c.875-1.737 2.084-3.09 3.628-4.062 1.543-.971 3.273-1.457 5.19-1.457 2.341 0 4.165.67 5.47 2.007 1.306 1.338 2.004 3.28 2.094 5.828v.636c0 1.3-.07 2.245-.212 2.837h-14.067c0 .219.007.38.02.482.05 1.968.398 3.621 1.041 4.96.644 1.337 1.493 2.334 2.548 2.99 1.054.656 2.231.984 3.53.984 1.094 0 2.22-.2 3.378-.598 1.157-.399 2.058-.868 2.701-1.408l.637 1.447c-.772.797-1.885 1.466-3.338 2.007-1.454.54-2.92.81-4.4.81-2.033 0-3.766-.486-5.2-1.457-1.435-.971-2.515-2.322-3.242-4.052-.727-1.73-1.09-3.734-1.09-6.01 0-2.226.437-4.207 1.312-5.944zm12.851 3.936c.064-.617.097-1.202.097-1.756-.013-1.723-.422-3.097-1.226-4.12-.804-1.022-2.042-1.533-3.714-1.533-3.602 0-5.558 2.47-5.866 7.41h10.71zm-143.968 40.02c1.158-2.302 2.74-4.08 4.747-5.335 2.007-1.254 4.232-1.881 6.676-1.881 2.625 0 4.863.604 6.715 1.814 1.853 1.209 3.258 2.92 4.217 5.132.958 2.213 1.437 4.805 1.437 7.777 0 3.074-.585 5.776-1.756 8.104-1.17 2.328-2.769 4.126-4.795 5.393-2.026 1.267-4.274 1.9-6.744 1.9-2.56 0-4.76-.623-6.6-1.87-1.839-1.249-3.238-2.995-4.196-5.24-.958-2.244-1.438-4.84-1.438-7.786 0-3.036.58-5.705 1.737-8.008zm2.943 14.752c.714 1.975 1.756 3.515 3.126 4.622 1.37 1.106 3.007 1.66 4.91 1.66 1.827 0 3.429-.512 4.805-1.535 1.377-1.023 2.448-2.544 3.213-4.563.765-2.02 1.148-4.49 1.148-7.41 0-2.534-.354-4.776-1.061-6.725-.708-1.949-1.743-3.463-3.107-4.544-1.363-1.08-2.99-1.62-4.882-1.62-1.852 0-3.47.498-4.853 1.495-1.383.997-2.457 2.492-3.222 4.486-.766 1.994-1.148 4.45-1.148 7.371 0 2.534.357 4.789 1.07 6.763zm31.362 5.799V74.54l-3.05-.695v-1.775l4.999-.618h.096l.753.618v1.39l-.02 2.238h.02c.038-.052.379-.45 1.022-1.197.643-.746 1.605-1.463 2.885-2.151 1.28-.689 2.576-1.033 3.888-1.033.438 0 .83.058 1.177.174v3.473c-.103-.077-.334-.154-.694-.231a5.327 5.327 0 0 0-1.12-.116c-1.505 0-2.798.228-3.878.685a12.967 12.967 0 0 0-2.875 1.65v14.974l5.248.308v1.621h-11.616v-1.64l3.165-.27zm31.97-20.251c.99.25 1.832.524 2.527.82l-.174 5.634h-1.968l-.83-3.763c-.18-.797-1.312-1.196-3.396-1.196-1.363 0-2.553.357-3.57 1.071-1.016.714-1.8 1.74-2.353 3.078-.554 1.338-.83 2.913-.83 4.727 0 2.187.309 4.023.926 5.51.617 1.485 1.46 2.591 2.528 3.318 1.068.727 2.283 1.09 3.647 1.09 1.119 0 2.203-.18 3.251-.54 1.049-.36 1.9-.785 2.557-1.273l.637 1.312c-.76.772-1.811 1.434-3.155 1.987-1.345.553-2.673.83-3.985.83-2.084 0-3.866-.492-5.345-1.476-1.48-.984-2.595-2.325-3.348-4.023-.752-1.699-1.129-3.609-1.129-5.731 0-2.136.415-4.094 1.245-5.876a10.055 10.055 0 0 1 3.714-4.274c1.647-1.068 3.654-1.602 6.02-1.602 1.03 0 2.04.126 3.03.377zm12.789 20.174V63.967l-3.493-.348v-1.447l5.828-.675h.096l.753.52v9.378l-.097 3.3c.515-.45 1.206-.933 2.074-1.447a15.314 15.314 0 0 1 2.895-1.312c1.061-.36 2.1-.54 3.116-.54 1.66 0 2.946.318 3.86.955.913.636 1.556 1.62 1.929 2.952.373 1.331.56 3.123.56 5.374v11.172l2.894.31v1.697h-8.857v-1.698l2.779-.309V80.658c0-1.673-.116-2.985-.348-3.937-.231-.952-.672-1.666-1.321-2.142-.65-.476-1.612-.714-2.885-.714-1.042 0-2.17.258-3.387.772-1.215.515-2.286 1.126-3.212 1.833v15.38l2.933.308v1.698h-8.587v-1.698l2.47-.29zm28.824-15.032c.875-1.737 2.084-3.09 3.628-4.062 1.544-.971 3.274-1.457 5.19-1.457 2.342 0 4.165.67 5.471 2.007 1.306 1.338 2.004 3.28 2.094 5.828v.636c0 1.3-.071 2.245-.213 2.837H278.66c0 .219.006.38.019.482.051 1.968.399 3.621 1.042 4.96.643 1.337 1.492 2.334 2.547 2.99 1.055.656 2.232.984 3.531.984 1.094 0 2.22-.2 3.377-.598 1.158-.399 2.058-.868 2.701-1.408l.637 1.447c-.772.797-1.884 1.466-3.338 2.007-1.454.54-2.92.81-4.4.81-2.032 0-3.766-.486-5.2-1.457-1.434-.971-2.515-2.322-3.242-4.052-.726-1.73-1.09-3.734-1.09-6.01 0-2.226.438-4.207 1.312-5.944zm12.851 3.936c.065-.617.097-1.202.097-1.756-.013-1.723-.421-3.097-1.225-4.12-.804-1.022-2.043-1.533-3.715-1.533-3.602 0-5.557 2.47-5.866 7.41h10.71zm13.678 6.89l.598 3.067c.18.283.514.557 1.003.82.489.264 1.068.48 1.737.647.669.167 1.344.25 2.026.25 3.229 0 4.843-1.196 4.843-3.589 0-.746-.215-1.389-.646-1.93-.431-.54-1.065-1.028-1.9-1.466-.837-.437-1.97-.913-3.397-1.428-1.415-.514-2.566-1.08-3.454-1.698-.888-.617-1.55-1.354-1.988-2.209-.437-.855-.656-1.875-.656-3.058 0-1.133.344-2.123 1.033-2.972.688-.85 1.617-1.502 2.788-1.959 1.17-.456 2.444-.685 3.82-.685.953 0 1.83.071 2.635.213.804.141 1.421.283 1.852.424.43.142.968.335 1.611.579v4.689h-1.949l-.694-2.856c-.18-.36-.64-.656-1.38-.887-.74-.232-1.566-.348-2.48-.348-.836 0-1.579.129-2.228.386-.65.257-1.155.624-1.515 1.1a2.645 2.645 0 0 0-.54 1.64c0 .85.196 1.55.588 2.103.393.554.885.994 1.476 1.322.592.328 1.396.698 2.412 1.11.335.128.586.231.753.308 1.505.605 2.714 1.161 3.628 1.67a6.977 6.977 0 0 1 2.277 2.006c.604.83.906 1.862.906 3.097 0 1.3-.34 2.422-1.022 3.368-.682.945-1.64 1.669-2.875 2.17-1.235.502-2.663.753-4.284.753-1.132 0-2.422-.183-3.869-.55-1.447-.367-2.525-.743-3.232-1.129v-4.959h2.123zM323.61 74.27v-1.563c.398-.09.845-.197 1.34-.319.496-.122.814-.222.956-.299.206-.128.376-.29.511-.482.135-.193.254-.444.357-.753.155-.411.373-1.17.656-2.277.283-1.106.463-1.865.54-2.277h1.834v5.635h7.004v2.335h-7.004v12.774c0 1.543.054 2.627.164 3.251.11.624.321 1.026.637 1.206.315.18.865.27 1.65.27h.019c.746 0 1.588-.106 2.527-.318.94-.212 1.66-.434 2.162-.666h.019l.502 1.486c-.386.296-.972.601-1.756.916a17.75 17.75 0 0 1-2.519.792c-.894.212-1.688.318-2.383.318h-.038c-1.377 0-2.419-.328-3.126-.984-.708-.656-1.061-1.801-1.061-3.435v-15.61h-2.991zm23.71 17.675V74.54l-3.048-.695v-1.775l4.998-.618h.096l.753.618v1.39l-.02 2.238h.02c.038-.052.38-.45 1.022-1.197.644-.746 1.605-1.463 2.885-2.151 1.28-.689 2.576-1.033 3.888-1.033.438 0 .83.058 1.177.174v3.473c-.103-.077-.334-.154-.694-.231a5.327 5.327 0 0 0-1.12-.116c-1.505 0-2.797.228-3.878.685a12.967 12.967 0 0 0-2.875 1.65v14.974l5.248.308v1.621h-11.616v-1.64l3.165-.27zm31.893-12.485c0-1.35-.138-2.412-.415-3.184-.276-.771-.755-1.337-1.437-1.698-.682-.36-1.647-.54-2.895-.54-2.212 0-4.528.708-6.946 2.123h-.02l-.868-1.737c.296-.283.914-.663 1.853-1.138.939-.476 2.01-.898 3.212-1.264 1.203-.367 2.358-.55 3.464-.55 1.801 0 3.223.25 4.265.752 1.042.502 1.79 1.306 2.248 2.412.456 1.107.685 2.599.685 4.477v13.025h2.47v1.466c-1.544.412-2.78.618-3.705.618-.438 0-.766-.036-.985-.106-.218-.071-.385-.225-.501-.463-.116-.238-.174-.608-.174-1.11v-1.447c-.579.514-1.167.987-1.765 1.418-.599.431-1.354.836-2.268 1.216a7.42 7.42 0 0 1-2.875.569c-1.222 0-2.331-.225-3.328-.675a5.4 5.4 0 0 1-2.384-2.075c-.591-.932-.887-2.087-.887-3.463 0-1.737.62-3.149 1.862-4.236 1.241-1.087 2.856-1.875 4.843-2.364 1.988-.488 4.171-.752 6.551-.79V79.46zm0 3.088c-2.135.012-3.933.234-5.393.665-1.46.431-2.55 1.033-3.27 1.805-.721.771-1.081 1.665-1.081 2.682 0 1.48.386 2.556 1.158 3.232.771.675 1.807 1.013 3.106 1.013.76 0 1.65-.235 2.673-.704a14.393 14.393 0 0 0 2.807-1.689V82.55z"/>
        <circle cx="121.025" cy="93.856" r="4.94"/>
        <circle cx="61.747" cy="93.856" r="4.94"/>
        <circle cx="111.145" cy="4.94" r="4.94"/>
        <circle cx="4.94" cy="41.988" r="4.94"/>
    </g>
</svg>
